<svg xmlns="http://www.w3.org/2000/svg" viewBox="0 0 320 200" role="img" aria-label="Neat Freak — nervous">

    <g fill="none" stroke="#9ccfc3" stroke-width="2" opacity="0.75">
      <circle cx="20"  cy="92"  r="6"/>
      <circle cx="302" cy="84"  r="5"/>
      <circle cx="304" cy="156" r="4.5"/>
      <circle cx="48"  cy="172" r="4"/>
    </g>
    <g fill="#7eb8ab" opacity="0.85">
      <path d="M 38 54 Q 38.9 58.1 43 59 Q 38.9 59.9 38 64 Q 37.1 59.9 33 59 Q 37.1 58.1 38 54 Z"/>
      <path d="M 284 48 Q 284.72 51.28 288 52 Q 284.72 52.72 284 56 Q 283.28 52.72 280 52 Q 283.28 51.28 284 48 Z"/>
      <path d="M 292 124 Q 292.54 126.46 295 127 Q 292.54 127.54 292 130 Q 291.46 127.54 289 127 Q 291.46 126.46 292 124 Z"/>
      <path d="M 24 140 Q 24.72 143.28 28 144 Q 24.72 144.72 24 148 Q 23.28 144.72 20 144 Q 23.28 143.28 24 140 Z"/>
    </g>

    

    <ellipse cx="160" cy="184" rx="62" ry="3" fill="#093f3b" opacity="0.1"/>

    <g class="nf-tilt" transform="translate(60 30)">
      <g class="nf-body-g">
        <path d="M 16 155 C 12 105, 22 62, 56 50 C 88 38, 130 42, 162 56 C 184 72, 186 120, 182 155 Z" fill="#1f9b8f"/>
        <g fill="#0f766e" opacity="0.55">
          <ellipse cx="58"  cy="122" rx="6"   ry="4"/>
          <ellipse cx="36"  cy="100" rx="4.5" ry="3.2"/>
          <ellipse cx="148" cy="130" rx="7"   ry="4.5"/>
          <ellipse cx="170" cy="108" rx="4.5" ry="3"/>
          <ellipse cx="96"  cy="140" rx="5"   ry="3.2"/>
          <ellipse cx="128" cy="96"  rx="3.5" ry="2.6"/>
        </g>
        <path d="M 56 64 Q 70 46 92 42" stroke="#ffffff" stroke-width="6" stroke-linecap="round" opacity="0.13" fill="none"/>
        <g class="nf-face">
          
    <g class="nf-brows" stroke="#093f3b" stroke-width="4.5" stroke-linecap="round" fill="none">
      <path d="M 46 64 Q 57 60 68 58"/>
      <path d="M 100 58 Q 113 60 120 64"/>
    </g>
          
    <g class="nf-eyes">
      <ellipse cx="60"  cy="88" rx="13" ry="14" fill="#f7f8f6"/>
      <ellipse cx="110" cy="88" rx="11"  ry="13" fill="#f7f8f6"/>
      <g class="nf-pupils" transform="translate(0 -1)">
        <circle cx="58"    cy="84"   r="4"   fill="#093f3b"/>
        <circle cx="108"   cy="84"   r="3.4" fill="#093f3b"/>
        <circle cx="56.6"  cy="82.6" r="1.3" fill="#f7f8f6"/>
        <circle cx="106.8" cy="82.8" r="1.1" fill="#f7f8f6"/>
      </g>
    </g>
          <path class="nf-mouth" d="M 68 118 Q 74 112 80 118 T 92 118" fill="none" stroke="#093f3b" stroke-width="3.5" stroke-linecap="round" stroke-linejoin="round"/>
          
        </g>
      </g>
    </g>

    <g class="nf-hands" transform="translate(60 30)">
      <g class="nf-hand nf-hand--left"><rect class="nf-finger nf-finger--left-0" x="15.5" y="140" width="9" height="21" rx="4.5" fill="#3aaca0"/><rect class="nf-finger nf-finger--left-1" x="24.5" y="138" width="9" height="23" rx="4.5" fill="#3aaca0"/><rect class="nf-finger nf-finger--left-2" x="33.5" y="138" width="9" height="23" rx="4.5" fill="#3aaca0"/><rect class="nf-finger nf-finger--left-3" x="42.5" y="139" width="9" height="22" rx="4.5" fill="#3aaca0"/></g>
      <g class="nf-hand nf-hand--right"><rect class="nf-finger nf-finger--right-0" x="150.5" y="139" width="9" height="22" rx="4.5" fill="#3aaca0"/><rect class="nf-finger nf-finger--right-1" x="159.5" y="138" width="9" height="23" rx="4.5" fill="#3aaca0"/><rect class="nf-finger nf-finger--right-2" x="168.5" y="138" width="9" height="23" rx="4.5" fill="#3aaca0"/><rect class="nf-finger nf-finger--right-3" x="177.5" y="140" width="9" height="21" rx="4.5" fill="#3aaca0"/></g>
    </g>

    
    <g class="nf-sweat" transform="translate(60 30)">
      
    <g class="nf-drop nf-drop--1">
      <path d="M 20 70 C 15.68 74.68, 15.2 80.4, 20 80.4 C 24.8 80.4, 24.32 74.68, 20 70 Z" fill="#a3d9ff" stroke="#093f3b" stroke-width="1.6" stroke-linejoin="round"/>
      <ellipse cx="18.32" cy="76.76" rx="1.0560000000000003" ry="1.8719999999999999" fill="#f7f8f6" opacity="0.75"/>
    </g>
      
    <g class="nf-drop nf-drop--2">
      <path d="M 178 75 C 173.68 79.68, 173.2 85.4, 178 85.4 C 182.8 85.4, 182.32 79.68, 178 75 Z" fill="#a3d9ff" stroke="#093f3b" stroke-width="1.6" stroke-linejoin="round"/>
      <ellipse cx="176.32" cy="81.76" rx="1.0560000000000003" ry="1.8719999999999999" fill="#f7f8f6" opacity="0.75"/>
    </g>
    </g>
    <g class="nf-bang" transform="translate(60 30)">
      <text x="60" y="55" text-anchor="middle" font-family="ui-sans-serif, system-ui"
            font-weight="900" font-size="26" fill="#f4bd45"
            stroke="#093f3b" stroke-width="1.5" paint-order="stroke">!</text>
    </g>
  
</svg>
